<?xml version="1.0" encoding="UTF-8" standalone="no"?>
<!-- Created with Inkscape (http://www.inkscape.org/) -->

<svg
   width="17.315081mm"
   height="2.2660761mm"
   viewBox="0 0 17.315081 2.2660761"
   version="1.1"
   id="svg5"
   xml:space="preserve"
   xmlns:xlink="http://www.w3.org/1999/xlink"
   xmlns="http://www.w3.org/2000/svg"
   xmlns:svg="http://www.w3.org/2000/svg"><defs
     id="defs2"><linearGradient
       id="linearGradient44"><stop
         style="stop-color:#debf12;stop-opacity:1;"
         offset="0"
         id="stop41" /><stop
         style="stop-color:#e56300;stop-opacity:1;"
         offset="0.47156703"
         id="stop42" /><stop
         style="stop-color:#e86300;stop-opacity:1;"
         offset="0.58945876"
         id="stop43" /><stop
         style="stop-color:#ddbe13;stop-opacity:1;"
         offset="1"
         id="stop44" /></linearGradient><linearGradient
       id="linearGradient5"><stop
         style="stop-color:#af7600;stop-opacity:1;"
         offset="0"
         id="stop2" /><stop
         style="stop-color:#d68e00;stop-opacity:0.89411765;"
         offset="0.24990885"
         id="stop3" /><stop
         style="stop-color:#cacabd;stop-opacity:1;"
         offset="0.49367261"
         id="stop4" /><stop
         style="stop-color:#a77206;stop-opacity:0.89803922;"
         offset="1"
         id="stop5" /></linearGradient><linearGradient
       xlink:href="#linearGradient5"
       id="linearGradient39"
       gradientUnits="userSpaceOnUse"
       gradientTransform="matrix(0.65855149,0,0,0.65855149,36.305024,97.878184)"
       x1="65.022423"
       y1="276.56"
       x2="65.022423"
       y2="278.03174" /><linearGradient
       xlink:href="#linearGradient44"
       id="linearGradient41"
       x1="76.052666"
       y1="280.96423"
       x2="76.052666"
       y2="279.99335"
       gradientUnits="userSpaceOnUse"
       gradientTransform="translate(0.31571213,0.03307292)" /><filter
       style="color-interpolation-filters:sRGB"
       id="filter44"
       x="-0.060556721"
       y="-0.32674394"
       width="1.1211134"
       height="1.6534879"><feGaussianBlur
         stdDeviation="0.15441919"
         id="feGaussianBlur44" /></filter><filter
       style="color-interpolation-filters:sRGB"
       id="filter45"
       x="-0.060556721"
       y="-0.32674394"
       width="1.1211134"
       height="1.6534879"><feGaussianBlur
         stdDeviation="0.15441919"
         id="feGaussianBlur45" /></filter><linearGradient
       xlink:href="#linearGradient44"
       id="linearGradient45"
       gradientUnits="userSpaceOnUse"
       gradientTransform="translate(0.31571213,0.03307292)"
       x1="76.052666"
       y1="280.96423"
       x2="76.052666"
       y2="279.99335" /><filter
       style="color-interpolation-filters:sRGB"
       id="filter46"
       x="-0.076852299"
       y="-0.41466946"
       width="1.1537046"
       height="1.8293389"><feGaussianBlur
         stdDeviation="0.19597278"
         id="feGaussianBlur46" /></filter><filter
       style="color-interpolation-filters:sRGB"
       id="filter50"
       x="-0.062404272"
       y="-0.020152117"
       width="1.1248085"
       height="1.0403042"><feGaussianBlur
         stdDeviation="0.0098650492"
         id="feGaussianBlur50" /></filter><filter
       style="color-interpolation-filters:sRGB"
       id="filter54"
       x="-0.16329528"
       y="-0.32659056"
       width="1.3265906"
       height="1.6531811"><feGaussianBlur
         stdDeviation="0.016264787"
         id="feGaussianBlur54" /></filter></defs><g
     id="layer1"
     transform="translate(-59.959842,-274.26956)"><ellipse
       style="opacity:1;mix-blend-mode:normal;fill:#f0860f;fill-opacity:1;stroke:none;stroke-width:0.151623;stroke-linejoin:bevel;stroke-dasharray:none;stroke-opacity:1;paint-order:stroke markers fill;filter:url(#filter54)"
       id="path54"
       cx="71.790619"
       cy="283.71335"
       rx="0.11952424"
       ry="0.05976212"
       transform="matrix(5.0530553,0,0,5.0530553,-290.30531,-1149.9088)" /><g
       id="g74"
       transform="translate(2.1047475,-5.0046219)"><g
         id="g50"
         transform="translate(-5.308641)"><path
           style="opacity:1;mix-blend-mode:normal;fill:url(#linearGradient41);fill-opacity:1;stroke:none;stroke-width:0.266999;stroke-linejoin:bevel;stroke-dasharray:none;stroke-opacity:1;paint-order:stroke markers fill;filter:url(#filter44)"
           d="m 78.682477,279.96448 0.01754,1.13424 -2.81269,-0.1443 -3.307292,-0.38034 3.208074,-0.56224 z"
           id="path40"
           transform="matrix(1.9062138,0,0,1,-71.654886,0)" /><path
           id="path37"
           style="fill:url(#linearGradient39);fill-opacity:1;stroke-width:0.948821;stroke-linejoin:bevel;paint-order:stroke markers fill"
           d="m 80.478816,280.49179 c -10e-7,0.32435 -2.016921,0.59273 -2.086858,0.59273 -0.06994,0 -0.126637,-0.26293 -0.126638,-0.58728 10e-7,-0.32434 0.0567,-0.58728 0.126638,-0.58728 0.06994,0 2.086857,0.25749 2.086858,0.58183 z" /><path
           id="path38"
           style="fill:none;fill-opacity:1;stroke-width:0.948821;stroke-linejoin:bevel;paint-order:stroke markers fill"
           d="m 80.478816,280.49179 c -10e-7,0.32435 -2.016921,0.59273 -2.086858,0.59273 -0.06994,0 -0.126637,-0.26293 -0.126638,-0.58728 10e-7,-0.32434 0.0567,-0.58728 0.126638,-0.58728 0.06994,0 2.086857,0.25749 2.086858,0.58183 z" /><path
           id="path39"
           style="mix-blend-mode:overlay;fill:#545f34;fill-opacity:1;stroke-width:0.948821;stroke-linejoin:bevel;paint-order:stroke markers fill"
           d="m 80.478816,280.49179 c -10e-7,0.32435 -2.016921,0.59273 -2.086858,0.59273 -0.06994,0 -0.126637,-0.26293 -0.126638,-0.58728 10e-7,-0.32434 0.0567,-0.58728 0.126638,-0.58728 0.06994,0 2.086857,0.25749 2.086858,0.58183 z" /><path
           style="opacity:1;mix-blend-mode:overlay;fill:#869c54;fill-opacity:1;stroke:none;stroke-width:0.266999;stroke-linejoin:bevel;stroke-dasharray:none;stroke-opacity:1;paint-order:stroke markers fill;filter:url(#filter45)"
           d="m 78.682477,279.96448 0.01754,1.13424 -2.81269,-0.1443 -3.307292,-0.38034 3.208074,-0.56224 z"
           id="path44"
           transform="matrix(2.1803279,0,0,1,-93.329267,0)" /><path
           style="opacity:1;mix-blend-mode:color;fill:url(#linearGradient45);fill-opacity:1;stroke:none;stroke-width:0.266999;stroke-linejoin:bevel;stroke-dasharray:none;stroke-opacity:1;paint-order:stroke markers fill;filter:url(#filter46)"
           d="m 78.682477,279.96448 0.01754,1.13424 -2.81269,-0.1443 -3.307292,-0.38034 3.208074,-0.56224 z"
           id="path45"
           transform="matrix(2.2406292,0,0,0.77333762,-98.407361,63.585961)" /><path
           d="m 78.185529,279.91249 -0.01344,5.2e-4 v 0.004 c -0.06264,0.0354 -0.111103,0.28285 -0.111104,0.58292 10e-7,0.30007 0.04846,0.54753 0.111104,0.58291 v 0.004 h 0.01085 c 0.0016,2.7e-4 0.0031,5.2e-4 0.0047,5.2e-4 0.0016,0 0.0031,-2.5e-4 0.0047,-5.2e-4 h 0.193787 c -0.06477,-0.0259 -0.115238,-0.27787 -0.115239,-0.58497 10e-7,-0.32434 0.05667,-0.58705 0.126607,-0.58705 0.005,0 0.01959,10e-4 0.04289,0.004 v -0.006 h -0.250631 z"
           style="opacity:1;mix-blend-mode:overlay;fill:#cb4b1e;fill-opacity:1;stroke-width:0.361532;stroke-linejoin:bevel;paint-order:stroke markers fill;filter:url(#filter50)"
           id="path50" /></g><use
         id="use60"
         xlink:href="#path54"
         transform="matrix(0.34905579,0,0,0.34905579,44.191867,182.08795)" /><use
         id="use61"
         xlink:href="#path54"
         transform="matrix(0.48378263,0,0,0.48378263,36.109608,142.40054)" /><use
         id="use62"
         xlink:href="#path54"
         transform="translate(-0.33516316,-3.2226396)" /><use
         id="use63"
         xlink:href="#path54"
         transform="matrix(0.55752797,0,0,-0.55752797,30.756268,439.43842)" /><use
         id="use64"
         xlink:href="#path54"
         transform="matrix(0.52658603,0,0,0.52658603,27.918601,130.64915)" /><use
         id="use65"
         xlink:href="#path54"
         transform="matrix(0.1918318,0,0,0.1918318,53.343102,225.51968)" /><use
         id="use66"
         xlink:href="#path54"
         transform="matrix(0.17152555,0,0,0.17152555,48.956013,232.29478)" /><use
         id="use67"
         xlink:href="#path54"
         transform="matrix(0.49192109,0,0,0.49192109,27.756253,141.51306)" /><use
         id="use68"
         xlink:href="#path54"
         transform="translate(-4.1042241,-3.0390766)" /><use
         id="use69"
         xlink:href="#path54"
         transform="matrix(0.34905579,0,0,0.34905579,36.096799,181.2467)" /><use
         id="use70"
         xlink:href="#use67"
         transform="translate(5.9078953,-0.967846)" /><use
         id="use71"
         xlink:href="#use67"
         transform="matrix(0.53215355,0,0,0.53215355,33.367149,131.52813)" /><use
         id="use72"
         xlink:href="#use67"
         transform="translate(-0.1072414,-1.1497471)" /><use
         id="use73"
         xlink:href="#use67"
         transform="matrix(0.64124619,0,0,0.64124619,27.465276,99.19262)" /><use
         id="use74"
         xlink:href="#use67"
         transform="matrix(0.57468505,0,0,0.57468505,23.388187,118.76704)" /></g></g></svg>
